<svg aria-hidden="true" style="position:absolute;width:0;height:0" xmlns="http://www.w3.org/2000/svg" overflow="hidden"><defs><symbol id="icon-left-arrow" viewBox="0 0 57 32"><path fill="var(--color1, #ff6b08)" d="M6.857 13.714h50.286v4.571H6.857v-4.571z"/><path fill="var(--color1, #ff6b08)" d="M19.083 31.979L0 16.827l3.733-3.099 19.083 15.154-3.733 3.097z"/><path fill="var(--color1, #ff6b08)" d="M19.083.014L0 15.168l3.733 3.099L22.816 3.11 19.083.013z"/></symbol><symbol id="icon-right-arrow" viewBox="0 0 57 32"><path fill="var(--color1, #ff6b08)" d="M0 13.714h50.286v4.571H0v-4.571z"/><path fill="var(--color1, #ff6b08)" d="M38.059 31.979l19.083-15.152-3.733-3.099-19.086 15.154 3.735 3.097z"/><path fill="var(--color1, #ff6b08)" d="M38.059.014l19.083 15.154-3.733 3.099L34.323 3.11 38.058.013z"/></symbol><symbol id="icon-vk" viewBox="0 0 32 32"><path fill="var(--color2, #436eab)" d="M27.541 18.46c1.061 1.036 2.182 2.011 3.134 3.152.421.507.819 1.03 1.123 1.619.432.836.041 1.757-.709 1.807l-4.662-.002c-1.202.1-2.162-.384-2.968-1.206-.645-.657-1.243-1.357-1.864-2.037-.254-.278-.521-.539-.839-.746-.636-.413-1.189-.287-1.552.377-.37.675-.454 1.423-.491 2.175-.05 1.098-.382 1.386-1.484 1.437-2.357.111-4.593-.245-6.671-1.434-1.832-1.048-3.252-2.528-4.489-4.203-2.407-3.261-4.25-6.845-5.907-10.53-.373-.83-.1-1.276.816-1.291 1.521-.03 3.041-.027 4.564-.002.618.009 1.027.364 1.266.947.823 2.023 1.83 3.948 3.093 5.732.337.475.68.95 1.168 1.284.541.37.952.248 1.207-.355.161-.382.232-.793.268-1.202.12-1.407.136-2.812-.075-4.214-.13-.875-.623-1.442-1.496-1.607-.446-.084-.379-.25-.164-.505.375-.439.727-.712 1.43-.712h5.269c.829.164 1.014.536 1.127 1.371l.005 5.852c-.009.323.161 1.282.743 1.496.466.152.773-.22 1.052-.516 1.261-1.339 2.162-2.921 2.966-4.559.357-.72.664-1.469.961-2.216.22-.555.566-.828 1.191-.816l5.071.005c.15 0 .302.002.448.027.854.146 1.089.513.825 1.348-.416 1.309-1.225 2.4-2.016 3.496-.846 1.17-1.75 2.3-2.589 3.477-.77 1.075-.709 1.617.248 2.55z"/></symbol></defs></svg>