<svg xmlns="http://www.w3.org/2000/svg" width="1680" height="841"><defs><filter id="f3" x="0" y="0" width="200%" height="200%"><feOffset result="offOut" in="SourceAlpha" dx="20" dy="20"/><feGaussianBlur result="blurOut" in="offOut" stdDeviation="15"/><feBlend in="SourceGraphic" in2="blurOut"/></filter></defs><path id="shadow-wave" fill="#ffffff20" filter="url(#f3)" d="M0 566c-.379-9.077-.345-18.03 3-23 18.679-.923 40.936-15.487 60-23 55.662-21.938 98.591-43.233 163-53 36.466-5.53 77.167 6.535 105 14 53 14.215 105.318 22.882 161 33 106.194 19.3 223.861-3.447 305-31l66-17 122-39c93.17-36.791 203.41-69.936 336-126q123.495-51.995 247-104l112-50v25q-156.99 67.493-314 135c-202.26 85.817-334.54 124.764-482 176l-102 27c-71.518 24.013-179.1 43.373-274 27-60.215-10.389-115.629-19.1-172-34-29.889-7.9-71.773-20.559-112-14-46.411 7.568-73.867 20.471-114 37l-57 22c-18.91 7.4-30.116 17.013-53 18z"/></svg>