<svg aria-hidden="true" style="position:absolute;width:0;height:0" xmlns="http://www.w3.org/2000/svg" overflow="hidden"><defs><symbol id="noun_call_2543948" viewBox="0 1 28 34"><path d="M3.726.503c-.412.02-.817.195-1.114.521L.536 3.306c.003-.007-.008-.006-.067.077a.487.487 0 00-.071.138l-.001.004c-.845 2.691-.279 5.652 1.101 8.467s3.58 5.51 6.107 7.721c2.527 2.211 5.377 3.941 8.095 4.799s5.353.847 7.306-.57a.43.43 0 00.06-.052c.051-.051.053-.058.045-.05l.008-.01 2.066-2.272a1.615 1.615 0 00-.107-2.272l-4.901-4.457a1.616 1.616 0 00-2.272.106l-2.217 2.438c-1.8-.521-3.339-1.405-4.819-2.751s-2.506-2.795-3.195-4.538l2.217-2.438a1.616 1.616 0 00-.106-2.272L4.884.917A1.6 1.6 0 003.726.503zm.046 1a.597.597 0 01.432.161l4.901 4.457c.252.23.27.596.04.848l-2.45 2.693a.5.5 0 00-.098.514l-.001-.003c.744 2.029 1.943 3.694 3.594 5.196s3.42 2.539 5.511 3.088a.5.5 0 00.5-.147l2.451-2.694a.588.588 0 01.848-.039l4.901 4.457c.252.23.269.595.039.848l-2.049 2.252c-1.603 1.15-3.861 1.215-6.389.417-2.538-.801-5.294-2.461-7.733-4.596s-4.561-4.741-5.866-7.403C1.112 8.917.643 6.253 1.354 3.905l2.002-2.2a.6.6 0 01.416-.201z"/></symbol><symbol id="noun_Campfire_2425646" viewBox="5 -4 16 32"><path d="M20.635 13.26c-.218-.493-.52-.979-.96-1.54-1.111-1.408-1.449-4.548-1.453-4.578a.377.377 0 00-.26-.32.38.38 0 00-.399.109c-1.325 1.495-.768 3.802-.467 4.725.083.252.173.55.237.851.489 2.436-.456 3.539-.678 3.761-.215.06-.361.03-.497-.117-.467-.516-.621-2.206-.403-4.408a4.548 4.548 0 00-.03-1.227c-.46-2.707-2.149-4.443-2.579-5.052C11.964 3.702 11.843.769 11.84.743a.374.374 0 00-.587-.298C9.28 1.797 9.45 5.053 9.725 6.871c.064.422.188.851.403 1.393.764 1.939-.151 4.442-.158 4.465s-.015.041-.019.064c-.117.617-.312.986-.531.986a.28.28 0 01-.072-.011c-.267-.056-.407-.343-.41-.591-.015-3.211-3.211-4.292-3.245-4.303a.372.372 0 00-.399.113.374.374 0 00-.053.414c.038.079.158.425.075 1.649a14.196 14.196 0 01-.591 3.23c-.76 2.5-.64 4.868-.632 4.981.585 6.412 9.729 7.535 15.157 3.923.595-.395 1.08-.847 1.438-1.344 2.003-2.786.825-6.569-.053-8.58zm-13.91 6.126a.375.375 0 01-.354.395h-.023a.375.375 0 01-.376-.354c-.034-.55-.026-1.126.015-1.751a.381.381 0 01.403-.35.379.379 0 01.35.403 12.315 12.315 0 00-.015 1.657zm.184-3.336a.374.374 0 01-.373.331c-.015 0-.03 0-.049-.004a.38.38 0 01-.328-.418l.181-1.453a.378.378 0 01.75.094l-.181 1.449zM18.088 5.527a.376.376 0 01-.314-.429c.024-.153.16-.936.529-1.33a.376.376 0 11.549.515c-.156.167-.289.644-.334.929a.376.376 0 01-.43.314zM4.364 7.402c-.072-.28-.251-.742-.423-.892a.377.377 0 01.496-.566c.406.356.618 1.122.656 1.272a.376.376 0 11-.729.187z"/></symbol></defs></svg>