<svg aria-hidden="true" style="position: absolute; width: 0; height: 0; overflow: hidden;" version="1.1" xmlns="http://www.w3.org/2000/svg" xmlns:xlink="http://www.w3.org/1999/xlink">
<defs>
<symbol id="noun_call_2543948" viewBox="-0 1 28 34">
<path d="M3.726 0.503c-0.412 0.020-0.817 0.195-1.114 0.521l-2.076 2.282c0.003-0.007-0.008-0.006-0.067 0.077-0.030 0.040-0.054 0.087-0.071 0.138l-0.001 0.004c-0.845 2.691-0.279 5.652 1.101 8.467s3.58 5.51 6.107 7.721c2.527 2.211 5.377 3.941 8.095 4.799s5.353 0.847 7.306-0.57c0.022-0.016 0.042-0.033 0.060-0.052l0-0c0.051-0.051 0.053-0.058 0.045-0.050l0.008-0.010 2.066-2.272c0.594-0.653 0.546-1.678-0.107-2.272l-4.901-4.457c-0.653-0.594-1.678-0.546-2.272 0.106l-2.217 2.438c-1.8-0.521-3.339-1.405-4.819-2.751s-2.506-2.795-3.195-4.538l2.217-2.438c0.594-0.653 0.546-1.678-0.106-2.272l-4.901-4.457c-0.326-0.297-0.746-0.434-1.158-0.414zM3.772 1.503c0.152-0.007 0.306 0.046 0.432 0.161l4.901 4.457c0.252 0.23 0.27 0.596 0.040 0.848l-2.45 2.693c-0.081 0.089-0.13 0.208-0.13 0.338 0 0.062 0.011 0.122 0.032 0.176l-0.001-0.003c0.744 2.029 1.943 3.694 3.594 5.196s3.42 2.539 5.511 3.088c0.038 0.010 0.082 0.017 0.128 0.017 0.148 0 0.28-0.063 0.372-0.164l0-0 2.451-2.694c0.23-0.252 0.595-0.269 0.848-0.039l4.901 4.457c0.252 0.23 0.269 0.595 0.039 0.848l-2.049 2.252c-1.603 1.15-3.861 1.215-6.389 0.417-2.538-0.801-5.294-2.461-7.733-4.596s-4.561-4.741-5.866-7.403c-1.291-2.635-1.76-5.299-1.049-7.647l2.002-2.2c0.115-0.126 0.264-0.194 0.416-0.201z"></path>
</symbol>
<symbol id="noun_Campfire_2425646" viewBox="5 -4 16 32">
<path d="M20.635 13.26c-0.218-0.493-0.52-0.979-0.96-1.54-1.111-1.408-1.449-4.548-1.453-4.578-0.015-0.151-0.12-0.275-0.26-0.32-0.143-0.045-0.297-0.004-0.399 0.109-1.325 1.495-0.768 3.802-0.467 4.725 0.083 0.252 0.173 0.55 0.237 0.851 0.489 2.436-0.456 3.539-0.678 3.761-0.215 0.060-0.361 0.030-0.497-0.117-0.467-0.516-0.621-2.206-0.403-4.408 0.045-0.448 0.034-0.851-0.030-1.227-0.46-2.707-2.149-4.443-2.579-5.052-1.182-1.762-1.303-4.695-1.306-4.721-0.004-0.139-0.083-0.264-0.207-0.324-0.12-0.060-0.267-0.053-0.38 0.026-1.973 1.352-1.803 4.608-1.528 6.426 0.064 0.422 0.188 0.851 0.403 1.393 0.764 1.939-0.151 4.442-0.158 4.465s-0.015 0.041-0.019 0.064c-0.117 0.617-0.312 0.986-0.531 0.986-0.023 0-0.045-0.004-0.072-0.011-0.267-0.056-0.407-0.343-0.41-0.591-0.015-3.211-3.211-4.292-3.245-4.303-0.143-0.045-0.301-0.004-0.399 0.113-0.102 0.117-0.12 0.279-0.053 0.414 0.038 0.079 0.158 0.425 0.075 1.649-0.072 1.099-0.271 2.187-0.591 3.23-0.76 2.5-0.64 4.868-0.632 4.981 0.585 6.412 9.729 7.535 15.157 3.923 0.595-0.395 1.080-0.847 1.438-1.344 2.003-2.786 0.825-6.569-0.053-8.58zM6.725 19.386c0.011 0.207-0.147 0.384-0.354 0.395h-0.023c-0.2 0-0.365-0.154-0.376-0.354-0.034-0.55-0.026-1.126 0.015-1.751 0.015-0.207 0.196-0.361 0.403-0.35 0.207 0.015 0.365 0.196 0.35 0.403-0.041 0.595-0.049 1.137-0.015 1.657zM6.909 16.050c-0.023 0.192-0.184 0.331-0.373 0.331-0.015 0-0.030 0-0.049-0.004-0.203-0.026-0.35-0.211-0.328-0.418l0.181-1.453c0.026-0.203 0.211-0.35 0.422-0.328 0.207 0.026 0.354 0.215 0.328 0.422l-0.181 1.449z"></path>
<path d="M18.088 5.527c-0.205-0.032-0.346-0.224-0.314-0.429 0.024-0.153 0.16-0.936 0.529-1.33 0.142-0.152 0.38-0.16 0.532-0.017s0.159 0.38 0.017 0.532c-0.156 0.167-0.289 0.644-0.334 0.929-0.032 0.203-0.221 0.346-0.43 0.314z"></path>
<path d="M4.364 7.402c-0.072-0.28-0.251-0.742-0.423-0.892-0.156-0.137-0.172-0.375-0.035-0.531s0.374-0.173 0.531-0.035c0.406 0.356 0.618 1.122 0.656 1.272 0.051 0.201-0.070 0.406-0.271 0.458-0.206 0.052-0.407-0.073-0.458-0.271z"></path>
</symbol>
</defs>
</svg>
